{"title":"The Dilemma 2011 TS XViD - IMAGiNE","uid":6178650,"size":1584597713,"categoryP":"video","categoryS":"movies","magnet":"?xt=urn:btih:538165934fc68026c8dafdb93a45d2f51a18a9e1&amp;dn=The+Dilemma+2011+TS+XViD+-+IMAGiNE&amp;tr=udp%3A%2F%2Ftracker.openbittorrent.com%3A80&amp;tr=udp%3A%2F%2Fopen.demonii.com%3A1337&amp;tr=udp%3A%2F%2Ftracker.coppersurfer.tk%3A6969&amp;tr=udp%3A%2F%2Fexodus.desync.com%3A6969","seeders":0,"leechers":0,"uploader":"SAFCukO09","files":109,"time":1297866595,"description":"*********** **** **** *** ******** *********** **** *** **********\n\n*+* +*+*+* *+*+*+ *+* *+* *+* *+* *+* *+*+* *+* *+*\n\n+*+ +*+ +*+*+ +*+ +*+ +*+ +*+ +*+ *+*+*+ +*+ +*+\n\n+$+ +$+ +*+ +$+ +$++*++$++* *$* +$+ +$+ +*+ +$+ +$++*++$\n\n+$+ +$+ +$+ +$+ +$+ +$+ +$+$ +$+ +$+ +$+$+$ +$+\n\n$+$ $+$ $+$ $+$ $+$ $+$ $+$ $+$ $+$ $+$+$ $+$\n\n$$$$$$$$$$$ $$$ $$$ $$$ $$$ $$$$$$$$ $$$$$$$$$$$ $$$ $$$$ $$$$$$$$$$\n\n\n\n\n\n\n\n\n\nAnother Fine Release Brought to you from - IMAGiNE\n\n\n\n\n\n********************************************************************************************************************\n\nThe Dilemma 2011 TS XViD - IMAGiNE\n\n********************************************************************************************************************\n\n\n\nRipper ...........:IMAGiNE IMDB Rating.......:4.9/10\n\nVideo Codec.......:XVID Release Date......:16/02/11\n\nAudio Codec.......:AC-3 Theatre Date......:14/01/11\n\nAudio Bitrate.....:256 Runtime...........:1h 42mn\n\nSubtitles.........:NIL Language..........:ENGLISH\n\nResolution........:688 x 384 IMDb URL.......... http://www.imdb.com/title/tt1578275/\n\n\n\nDETAILS:\n\n\n\nVideo\n\nID : 0\n\nFormat : MPEG-4 Visual\n\nFormat profile : Advanced Simple@L5\n\nFormat settings, BVOP : Yes\n\nFormat settings, QPel : No\n\nFormat settings, GMC : No warppoints\n\nFormat settings, Matrix : Default (MPEG)\n\nMuxing mode : Packed bitstream\n\nCodec ID : XVID\n\nCodec ID/Hint : XviD\n\nDuration : 1h 42mn\n\nBit rate : 1 786 Kbps\n\nWidth : 688 pixels\n\nHeight : 384 pixels\n\nDisplay aspect ratio : 16:9\n\nFrame rate : 25.000 fps\n\nColor space : YUV\n\nChroma subsampling : 4:2:0\n\nBit depth : 8 bits\n\nScan type : Progressive\n\nBits/(Pixel*Frame) : 0.270\n\nStream size : 1.28 GiB (87%)\n\nWriting library : XviD 61\n\n\n\nAudio\n\nID : 1\n\nFormat : AC-3\n\nFormat/Info : Audio Coding 3\n\nMode extension : CM (complete main)\n\nCodec ID : 2000\n\nDuration : 1h 42mn\n\nBit rate mode : Constant\n\nBit rate : 256 Kbps\n\nChannel(s) : 2 channels\n\nChannel positions : Front: L R\n\nSampling rate : 48.0 KHz\n\nBit depth : 16 bits\n\nStream size : 188 MiB (12%)\n\nAlignment : Aligned on interleaves\n\nInterleave, duration : 40 ms (1.00 video frame)\n\nInterleave, preload duration : 512 ms\n\n\n\n\n\n\n\n\n\n\n\n\n\n\n\nSOURCES:\n\n\n\nVIDEO: Jailbait... Thanks\n\nAUDIO: Thanks matey...\n\n\n\nNOTES:\n\n\n\nIMAGiNE bringing you another release..........The Dilemma 2011\n\n\n\nHere we are with a nice encode of this one for you all. Now for the video we just made a script\n\ncontaining white balance, rgb eq, sharpness, chroma, brightness, contrast ect. Not a great video, but watchable.\n\nThe video was missing in 2 spots for about 30-40 seconds each, but nothing is missed really. The audio\n\nwe got from a friend thanks bro... With the audio it was just a matter of syncing it to the video.\n\n\n\nEnjoy :wink:\n\n\n\nSCREENS:\n\n\n\n\n\n\n\n\n\n\n\n\n\n\n\n\n\nGREETS:\n\n\n\nFLAWL3SS,ViSiON,FUSiON,Rx,SecretMyth,BirdFlu,ELEKTRI4KA,SERENiTY and Autotron\n\nAnd to all the other p2p grps past and present\n\n\n\n\n\nLooking for these,syncers,cammers,silver supplier,Audio.....Have anything to offer????......\n\nContact us &lt;a class=&quot;__cf_email__&quot; href=&quot;/cdn-cgi/l/email-protection&quot; data-cfemail=&quot;6d04000c0a0403080a1f02181d2d05181e05000c0401430e0200&quot;&gt;[email&amp;#160;protected]&lt;/a&gt;&lt;script cf-hash='f9e31' type=&quot;text/javascript&quot;&gt;\n/* &lt;![CDATA[ */!function(){try{var t=&quot;currentScript&quot;in document?document.currentScript:function(){for(var t=document.getElementsByTagName(&quot;script&quot;),e=t.length;e--;)if(t[e].getAttribute(&quot;cf-hash&quot;))return t[e]}();if(t&amp;&amp;t.previousSibling){var e,r,n,i,c=t.previousSibling,a=c.getAttribute(&quot;data-cfemail&quot;);if(a){for(e=&quot;&quot;,r=parseInt(a.substr(0,2),16),n=2;a.length-n;n+=2)i=parseInt(a.substr(n,2),16)^r,e+=String.fromCharCode(i);e=document.createTextNode(e),c.parentNode.replaceChild(e,c)}}}catch(u){}}();/* ]]&gt; */&lt;/script&gt;","torrent":{"xt":"urn:btih:538165934fc68026c8dafdb93a45d2f51a18a9e1","amp;dn":"The+Dilemma+2011+TS+XViD+-+IMAGiNE","amp;tr":["udp%3A%2F%2Ftracker.openbittorrent.com%3A80","udp%3A%2F%2Fopen.demonii.com%3A1337","udp%3A%2F%2Ftracker.coppersurfer.tk%3A6969","udp%3A%2F%2Fexodus.desync.com%3A6969"],"infoHash":"538165934fc68026c8dafdb93a45d2f51a18a9e1","infoHashBuffer":{"type":"Buffer","data":[83,129,101,147,79,198,128,38,200,218,253,185,58,69,210,245,26,24,169,225]},"announce":[],"urlList":[]}}